<mxfile host="Electron" modified="2023-07-25T13:48:46.410Z" agent="Mozilla/5.0 (Windows NT 10.0; Win64; x64) AppleWebKit/537.36 (KHTML, like Gecko) draw.io/21.6.5 Chrome/114.0.5735.243 Electron/25.3.1 Safari/537.36" etag="AiWpd3Mu5pzAUneHdC10" version="21.6.5" type="device">
  <diagram name="Página-1" id="IT94PhkSfCGfCA30hDR3">
    <mxGraphModel dx="1863" dy="610" grid="1" gridSize="10" guides="1" tooltips="1" connect="1" arrows="1" fold="1" page="1" pageScale="1" pageWidth="827" pageHeight="1169" math="0" shadow="0">
      <root>
        <mxCell id="0" />
        <mxCell id="1" parent="0" />
        <mxCell id="-vJPfzGn2iWlwI9Ef2Sk-15" value="" style="rounded=0;whiteSpace=wrap;html=1;fillColor=#e1d5e7;strokeColor=#9673a6;" parent="1" vertex="1">
          <mxGeometry x="-20" y="740" width="340" height="190" as="geometry" />
        </mxCell>
        <mxCell id="iXgPbO_9FdCk518ZqdvQ-1" value="Uma clínica veterinária deseja cadastrar os pets que são atendidos em seu local.&#xa;&#xa;&#xa;- a clínica contém um endereço;&#xa;- os pets deverão ter nome, data de nascimento, tipo de pet;&#xa;- os pets deverão ter raça;&#xa;- os pets deverão ter donos;&#xa;- a clínica deseja cadastrar seus veterinários e todo atendimento de pet será feito por um veterinário;&#xa;&#xa;&#xa;DML&#xa;&#xa;&#xa;- cada atendimento deve registrar qual veterinário atendeu, qual pet foi atendido, descrição da consulta e data da consulta&#xa;&#xa;&#xa;DQL&#xa;&#xa;&#xa;- listar todos os veterinários (nome e CRMV) de uma clínica (razão social)&#xa;- listar todas as raças que começam com a letra S&#xa;- listar todos os tipos de pet que terminam com a letra O&#xa;- listar todos os pets mostrando os nomes dos seus donos&#xa;- listar todos os atendimentos mostrando o nome do veterinário que atendeu, o nome, a raça e o tipo do pet que foi atendido, o nome do dono do pet e o nome da clínica onde o pet foi atendido" style="text;whiteSpace=wrap;" parent="1" vertex="1">
          <mxGeometry x="134" y="30" width="560" height="410" as="geometry" />
        </mxCell>
        <mxCell id="iXgPbO_9FdCk518ZqdvQ-26" value="" style="edgeStyle=orthogonalEdgeStyle;rounded=0;orthogonalLoop=1;jettySize=auto;html=1;endArrow=none;endFill=0;" parent="1" source="iXgPbO_9FdCk518ZqdvQ-27" target="iXgPbO_9FdCk518ZqdvQ-25" edge="1">
          <mxGeometry relative="1" as="geometry" />
        </mxCell>
        <mxCell id="-vJPfzGn2iWlwI9Ef2Sk-9" value="" style="edgeStyle=orthogonalEdgeStyle;rounded=0;orthogonalLoop=1;jettySize=auto;html=1;" parent="1" source="iXgPbO_9FdCk518ZqdvQ-2" target="-vJPfzGn2iWlwI9Ef2Sk-8" edge="1">
          <mxGeometry relative="1" as="geometry" />
        </mxCell>
        <mxCell id="iXgPbO_9FdCk518ZqdvQ-2" value="Clínica" style="rounded=0;whiteSpace=wrap;html=1;" parent="1" vertex="1">
          <mxGeometry x="90" y="620" width="120" height="60" as="geometry" />
        </mxCell>
        <mxCell id="iXgPbO_9FdCk518ZqdvQ-8" value="" style="edgeStyle=orthogonalEdgeStyle;rounded=0;orthogonalLoop=1;jettySize=auto;html=1;endArrow=none;endFill=0;" parent="1" source="iXgPbO_9FdCk518ZqdvQ-15" target="iXgPbO_9FdCk518ZqdvQ-7" edge="1">
          <mxGeometry relative="1" as="geometry" />
        </mxCell>
        <mxCell id="iXgPbO_9FdCk518ZqdvQ-17" value="" style="edgeStyle=orthogonalEdgeStyle;rounded=0;orthogonalLoop=1;jettySize=auto;html=1;endArrow=none;endFill=0;" parent="1" source="iXgPbO_9FdCk518ZqdvQ-6" target="iXgPbO_9FdCk518ZqdvQ-16" edge="1">
          <mxGeometry relative="1" as="geometry" />
        </mxCell>
        <mxCell id="iXgPbO_9FdCk518ZqdvQ-6" value="Pets" style="rounded=0;whiteSpace=wrap;html=1;" parent="1" vertex="1">
          <mxGeometry x="930" y="625" width="120" height="60" as="geometry" />
        </mxCell>
        <mxCell id="iXgPbO_9FdCk518ZqdvQ-7" value="Dono" style="rounded=0;whiteSpace=wrap;html=1;" parent="1" vertex="1">
          <mxGeometry x="1234" y="625" width="120" height="60" as="geometry" />
        </mxCell>
        <mxCell id="iXgPbO_9FdCk518ZqdvQ-13" value="" style="edgeStyle=orthogonalEdgeStyle;rounded=0;orthogonalLoop=1;jettySize=auto;html=1;endArrow=none;endFill=0;" parent="1" target="iXgPbO_9FdCk518ZqdvQ-6" edge="1">
          <mxGeometry relative="1" as="geometry">
            <Array as="points">
              <mxPoint x="990" y="600" />
              <mxPoint x="990" y="600" />
            </Array>
            <mxPoint x="990" y="550" as="sourcePoint" />
          </mxGeometry>
        </mxCell>
        <mxCell id="iXgPbO_9FdCk518ZqdvQ-19" value="" style="edgeStyle=orthogonalEdgeStyle;rounded=0;orthogonalLoop=1;jettySize=auto;html=1;endArrow=none;endFill=0;" parent="1" source="iXgPbO_9FdCk518ZqdvQ-16" target="iXgPbO_9FdCk518ZqdvQ-18" edge="1">
          <mxGeometry relative="1" as="geometry" />
        </mxCell>
        <mxCell id="iXgPbO_9FdCk518ZqdvQ-16" value="Possui" style="rhombus;whiteSpace=wrap;html=1;rounded=0;" parent="1" vertex="1">
          <mxGeometry x="950" y="730" width="80" height="80" as="geometry" />
        </mxCell>
        <mxCell id="iXgPbO_9FdCk518ZqdvQ-21" value="" style="edgeStyle=orthogonalEdgeStyle;rounded=0;orthogonalLoop=1;jettySize=auto;html=1;endArrow=none;endFill=0;" parent="1" source="iXgPbO_9FdCk518ZqdvQ-18" target="iXgPbO_9FdCk518ZqdvQ-20" edge="1">
          <mxGeometry relative="1" as="geometry" />
        </mxCell>
        <mxCell id="iXgPbO_9FdCk518ZqdvQ-18" value="Raca" style="whiteSpace=wrap;html=1;rounded=0;" parent="1" vertex="1">
          <mxGeometry x="930" y="860" width="120" height="60" as="geometry" />
        </mxCell>
        <mxCell id="iXgPbO_9FdCk518ZqdvQ-20" value="TipoRaça" style="ellipse;whiteSpace=wrap;html=1;rounded=0;" parent="1" vertex="1">
          <mxGeometry x="1015" y="980" width="85" height="40" as="geometry" />
        </mxCell>
        <mxCell id="iXgPbO_9FdCk518ZqdvQ-24" value="" style="edgeStyle=orthogonalEdgeStyle;rounded=0;orthogonalLoop=1;jettySize=auto;html=1;endArrow=none;endFill=0;" parent="1" source="iXgPbO_9FdCk518ZqdvQ-22" target="iXgPbO_9FdCk518ZqdvQ-18" edge="1">
          <mxGeometry relative="1" as="geometry" />
        </mxCell>
        <mxCell id="iXgPbO_9FdCk518ZqdvQ-22" value="NomeRaça" style="ellipse;whiteSpace=wrap;html=1;rounded=0;" parent="1" vertex="1">
          <mxGeometry x="880" y="980" width="85" height="40" as="geometry" />
        </mxCell>
        <mxCell id="iXgPbO_9FdCk518ZqdvQ-30" value="" style="edgeStyle=orthogonalEdgeStyle;rounded=0;orthogonalLoop=1;jettySize=auto;html=1;endArrow=none;endFill=0;" parent="1" source="iXgPbO_9FdCk518ZqdvQ-25" target="iXgPbO_9FdCk518ZqdvQ-29" edge="1">
          <mxGeometry relative="1" as="geometry" />
        </mxCell>
        <mxCell id="iXgPbO_9FdCk518ZqdvQ-25" value="Veterinarios" style="whiteSpace=wrap;html=1;rounded=0;" parent="1" vertex="1">
          <mxGeometry x="390" y="620" width="120" height="60" as="geometry" />
        </mxCell>
        <mxCell id="iXgPbO_9FdCk518ZqdvQ-28" value="" style="edgeStyle=orthogonalEdgeStyle;rounded=0;orthogonalLoop=1;jettySize=auto;html=1;endArrow=none;endFill=0;" parent="1" source="iXgPbO_9FdCk518ZqdvQ-2" target="iXgPbO_9FdCk518ZqdvQ-27" edge="1">
          <mxGeometry relative="1" as="geometry">
            <mxPoint x="150" y="680" as="sourcePoint" />
            <mxPoint x="150" y="855" as="targetPoint" />
          </mxGeometry>
        </mxCell>
        <mxCell id="iXgPbO_9FdCk518ZqdvQ-27" value="Possui" style="rhombus;whiteSpace=wrap;html=1;" parent="1" vertex="1">
          <mxGeometry x="260" y="610" width="80" height="80" as="geometry" />
        </mxCell>
        <mxCell id="iXgPbO_9FdCk518ZqdvQ-31" value="" style="edgeStyle=orthogonalEdgeStyle;rounded=0;orthogonalLoop=1;jettySize=auto;html=1;endArrow=none;endFill=0;exitX=1;exitY=0.5;exitDx=0;exitDy=0;" parent="1" source="-vJPfzGn2iWlwI9Ef2Sk-1" target="iXgPbO_9FdCk518ZqdvQ-6" edge="1">
          <mxGeometry relative="1" as="geometry">
            <mxPoint x="790" y="655" as="sourcePoint" />
            <Array as="points">
              <mxPoint x="770" y="655" />
            </Array>
          </mxGeometry>
        </mxCell>
        <mxCell id="iXgPbO_9FdCk518ZqdvQ-29" value="Realiza" style="rhombus;whiteSpace=wrap;html=1;rounded=0;" parent="1" vertex="1">
          <mxGeometry x="540" y="610" width="80" height="80" as="geometry" />
        </mxCell>
        <mxCell id="iXgPbO_9FdCk518ZqdvQ-32" value="1" style="text;html=1;align=center;verticalAlign=middle;resizable=0;points=[];autosize=1;strokeColor=none;fillColor=none;" parent="1" vertex="1">
          <mxGeometry x="215" y="618" width="30" height="30" as="geometry" />
        </mxCell>
        <mxCell id="iXgPbO_9FdCk518ZqdvQ-33" value="N" style="text;html=1;align=center;verticalAlign=middle;resizable=0;points=[];autosize=1;strokeColor=none;fillColor=none;" parent="1" vertex="1">
          <mxGeometry x="355" y="618" width="30" height="30" as="geometry" />
        </mxCell>
        <mxCell id="iXgPbO_9FdCk518ZqdvQ-34" value="1" style="text;html=1;align=center;verticalAlign=middle;resizable=0;points=[];autosize=1;strokeColor=none;fillColor=none;" parent="1" vertex="1">
          <mxGeometry x="510" y="618" width="30" height="30" as="geometry" />
        </mxCell>
        <mxCell id="iXgPbO_9FdCk518ZqdvQ-35" value="1" style="text;html=1;align=center;verticalAlign=middle;resizable=0;points=[];autosize=1;strokeColor=none;fillColor=none;" parent="1" vertex="1">
          <mxGeometry x="895" y="623" width="30" height="30" as="geometry" />
        </mxCell>
        <mxCell id="iXgPbO_9FdCk518ZqdvQ-36" value="N" style="text;html=1;align=center;verticalAlign=middle;resizable=0;points=[];autosize=1;strokeColor=none;fillColor=none;" parent="1" vertex="1">
          <mxGeometry x="990" y="685" width="30" height="30" as="geometry" />
        </mxCell>
        <mxCell id="iXgPbO_9FdCk518ZqdvQ-37" value="1" style="text;html=1;align=center;verticalAlign=middle;resizable=0;points=[];autosize=1;strokeColor=none;fillColor=none;" parent="1" vertex="1">
          <mxGeometry x="991" y="823" width="30" height="30" as="geometry" />
        </mxCell>
        <mxCell id="iXgPbO_9FdCk518ZqdvQ-38" value="(1, N)" style="text;html=1;align=center;verticalAlign=middle;resizable=0;points=[];autosize=1;strokeColor=none;fillColor=none;" parent="1" vertex="1">
          <mxGeometry x="1050" y="625" width="50" height="30" as="geometry" />
        </mxCell>
        <mxCell id="iXgPbO_9FdCk518ZqdvQ-39" value="1" style="text;html=1;align=center;verticalAlign=middle;resizable=0;points=[];autosize=1;strokeColor=none;fillColor=none;" parent="1" vertex="1">
          <mxGeometry x="1201" y="623" width="30" height="30" as="geometry" />
        </mxCell>
        <mxCell id="-vJPfzGn2iWlwI9Ef2Sk-3" style="edgeStyle=orthogonalEdgeStyle;rounded=0;orthogonalLoop=1;jettySize=auto;html=1;entryX=1;entryY=0.5;entryDx=0;entryDy=0;endArrow=none;endFill=0;" parent="1" source="-vJPfzGn2iWlwI9Ef2Sk-1" target="iXgPbO_9FdCk518ZqdvQ-29" edge="1">
          <mxGeometry relative="1" as="geometry" />
        </mxCell>
        <mxCell id="-vJPfzGn2iWlwI9Ef2Sk-1" value="atendimento" style="rounded=0;whiteSpace=wrap;html=1;" parent="1" vertex="1">
          <mxGeometry x="650" y="620" width="120" height="60" as="geometry" />
        </mxCell>
        <mxCell id="-vJPfzGn2iWlwI9Ef2Sk-4" value="possui" style="rhombus;whiteSpace=wrap;html=1;rounded=0;" parent="1" vertex="1">
          <mxGeometry x="800" y="615" width="80" height="80" as="geometry" />
        </mxCell>
        <mxCell id="-vJPfzGn2iWlwI9Ef2Sk-8" value="Endereco" style="whiteSpace=wrap;html=1;rounded=0;" parent="1" vertex="1">
          <mxGeometry x="90" y="760" width="120" height="60" as="geometry" />
        </mxCell>
        <mxCell id="-vJPfzGn2iWlwI9Ef2Sk-10" value="Lagradouro" style="ellipse;whiteSpace=wrap;html=1;" parent="1" vertex="1">
          <mxGeometry y="770" width="75" height="50" as="geometry" />
        </mxCell>
        <mxCell id="-vJPfzGn2iWlwI9Ef2Sk-11" value="Complemento" style="ellipse;whiteSpace=wrap;html=1;" parent="1" vertex="1">
          <mxGeometry x="20" y="830" width="75" height="50" as="geometry" />
        </mxCell>
        <mxCell id="-vJPfzGn2iWlwI9Ef2Sk-12" value="número" style="ellipse;whiteSpace=wrap;html=1;" parent="1" vertex="1">
          <mxGeometry x="120" y="870" width="60" height="40" as="geometry" />
        </mxCell>
        <mxCell id="-vJPfzGn2iWlwI9Ef2Sk-13" value="bairro" style="ellipse;whiteSpace=wrap;html=1;fontStyle=0" parent="1" vertex="1">
          <mxGeometry x="210" y="830" width="75" height="50" as="geometry" />
        </mxCell>
        <mxCell id="-vJPfzGn2iWlwI9Ef2Sk-14" value="Cidade" style="ellipse;whiteSpace=wrap;html=1;fontStyle=0" parent="1" vertex="1">
          <mxGeometry x="230" y="770" width="75" height="50" as="geometry" />
        </mxCell>
        <mxCell id="-vJPfzGn2iWlwI9Ef2Sk-16" value="N" style="text;html=1;align=center;verticalAlign=middle;resizable=0;points=[];autosize=1;strokeColor=none;fillColor=none;" parent="1" vertex="1">
          <mxGeometry x="615" y="618" width="30" height="30" as="geometry" />
        </mxCell>
        <mxCell id="-vJPfzGn2iWlwI9Ef2Sk-17" value="N" style="text;html=1;align=center;verticalAlign=middle;resizable=0;points=[];autosize=1;strokeColor=none;fillColor=none;" parent="1" vertex="1">
          <mxGeometry x="770" y="623" width="30" height="30" as="geometry" />
        </mxCell>
        <mxCell id="-vJPfzGn2iWlwI9Ef2Sk-18" value="" style="edgeStyle=orthogonalEdgeStyle;rounded=0;orthogonalLoop=1;jettySize=auto;html=1;endArrow=none;endFill=0;" parent="1" source="iXgPbO_9FdCk518ZqdvQ-6" target="iXgPbO_9FdCk518ZqdvQ-15" edge="1">
          <mxGeometry relative="1" as="geometry">
            <mxPoint x="1050" y="655" as="sourcePoint" />
            <mxPoint x="1234" y="655" as="targetPoint" />
          </mxGeometry>
        </mxCell>
        <mxCell id="iXgPbO_9FdCk518ZqdvQ-15" value="Possui" style="rhombus;whiteSpace=wrap;html=1;" parent="1" vertex="1">
          <mxGeometry x="1110" y="615" width="80" height="80" as="geometry" />
        </mxCell>
        <mxCell id="-vJPfzGn2iWlwI9Ef2Sk-21" value="" style="edgeStyle=orthogonalEdgeStyle;rounded=0;orthogonalLoop=1;jettySize=auto;html=1;endArrow=none;endFill=0;" parent="1" source="-vJPfzGn2iWlwI9Ef2Sk-19" target="-vJPfzGn2iWlwI9Ef2Sk-20" edge="1">
          <mxGeometry relative="1" as="geometry" />
        </mxCell>
        <mxCell id="-vJPfzGn2iWlwI9Ef2Sk-19" value="Possui" style="rhombus;whiteSpace=wrap;html=1;" parent="1" vertex="1">
          <mxGeometry x="950" y="480" width="80" height="80" as="geometry" />
        </mxCell>
        <mxCell id="-vJPfzGn2iWlwI9Ef2Sk-20" value="Tipo de pets" style="rounded=0;whiteSpace=wrap;html=1;" parent="1" vertex="1">
          <mxGeometry x="930" y="350" width="120" height="60" as="geometry" />
        </mxCell>
        <mxCell id="-vJPfzGn2iWlwI9Ef2Sk-22" value="1" style="text;html=1;align=center;verticalAlign=middle;resizable=0;points=[];autosize=1;strokeColor=none;fillColor=none;" parent="1" vertex="1">
          <mxGeometry x="991" y="410" width="30" height="30" as="geometry" />
        </mxCell>
        <mxCell id="-vJPfzGn2iWlwI9Ef2Sk-23" value="N" style="text;html=1;align=center;verticalAlign=middle;resizable=0;points=[];autosize=1;strokeColor=none;fillColor=none;" parent="1" vertex="1">
          <mxGeometry x="991" y="595" width="30" height="30" as="geometry" />
        </mxCell>
      </root>
    </mxGraphModel>
  </diagram>
</mxfile>
